<?xml version="1.0" encoding="UTF-8"?>
<svg width="16px" height="15px" viewBox="0 0 16 15" version="1.1" xmlns="http://www.w3.org/2000/svg" xmlns:xlink="http://www.w3.org/1999/xlink">
    <!-- Generator: Sketch 63 (92445) - https://sketch.com -->
    <title>报表中心</title>
    <desc>Created with Sketch.</desc>
    <g id="页面-1" stroke="none" stroke-width="1" fill="none" fill-rule="evenodd">
        <g id="菜单栏交互样式" transform="translate(-20.000000, -568.000000)">
            <g id="编组-3备份-9" transform="translate(0.000000, 552.000000)">
                <g id="报表中心" transform="translate(28.000000, 24.000000) scale(-1, 1) translate(-28.000000, -24.000000) translate(20.000000, 16.000000)">
                    <rect id="矩形" x="0" y="0" width="16" height="16" rx="1"></rect>
                    <path d="M10.6464466,5.89306266 C10.5559644,5.98354486 10.5,6.10854486 10.5,6.24661605 L10.5,14 C10.5,14.1380712 10.5559644,14.2630712 10.6464466,14.3535534 C10.7369288,14.4440356 10.8619288,14.5 11,14.5 L14,14.5 C14.1380712,14.5 14.2630712,14.4440356 14.3535534,14.3535534 C14.4440356,14.2630712 14.5,14.1380712 14.5,14 L14.5,6.91328272 C14.5,6.79610806 14.4593085,6.68679405 14.3900209,6.60041902 C14.3207333,6.51404399 14.2228496,6.45060794 14.1084652,6.42518919 L10.6464466,5.89306266 Z" id="矩形" stroke="#333333"></path>
                    <path d="M1.64644661,5.89306266 C1.55596441,5.98354486 1.5,6.10854486 1.5,6.24661605 L1.5,14 C1.5,14.1380712 1.55596441,14.2630712 1.64644661,14.3535534 C1.73692881,14.4440356 1.86192881,14.5 2,14.5 L5,14.5 C5.13807119,14.5 5.26307119,14.4440356 5.35355339,14.3535534 C5.44403559,14.2630712 5.5,14.1380712 5.5,14 L5.5,6.91328272 C5.5,6.79610806 5.4593085,6.68679405 5.39002091,6.60041902 C5.32073331,6.51404399 5.22284962,6.45060794 5.10846523,6.42518919 L1.64644661,5.89306266 Z" id="矩形备份-13" stroke="#333333"></path>
                    <path d="M5.64644661,0.840836799 C5.55596441,0.931319002 5.5,1.056319 5.5,1.19439019 L5.5,14 C5.5,14.1380712 5.55596441,14.2630712 5.64644661,14.3535534 C5.73692881,14.4440356 5.86192881,14.5 6,14.5 L10,14.5 C10.1380712,14.5 10.2630712,14.4440356 10.3535534,14.3535534 C10.4440356,14.2630712 10.5,14.1380712 10.5,14 L10.5,1.9086759 C10.5,1.7875578 10.4565898,1.67515007 10.3833717,1.587699 C10.3101535,1.50024794 10.2071273,1.43775354 10.0878953,1.41646212 L5.64644661,0.840836799 Z" id="矩形备份-10" stroke="#06958D"></path>
                    <rect id="矩形" fill="#333333" x="0" y="14" width="16" height="1"></rect>
                </g>
            </g>
        </g>
    </g>
</svg>