<?xml version="1.0" encoding="UTF-8"?>
<svg width="16px" height="16px" viewBox="0 0 16 16" version="1.1" xmlns="http://www.w3.org/2000/svg" xmlns:xlink="http://www.w3.org/1999/xlink">
    <!-- Generator: Sketch 63 (92445) - https://sketch.com -->
    <title>系统管理</title>
    <desc>Created with Sketch.</desc>
    <g id="页面-1" stroke="none" stroke-width="1" fill="none" fill-rule="evenodd">
        <g id="菜单栏交互样式" transform="translate(-20.000000, -616.000000)">
            <g id="编组-3备份-10" transform="translate(0.000000, 600.000000)">
                <g id="系统管理" transform="translate(28.000000, 24.000000) scale(-1, 1) translate(-28.000000, -24.000000) translate(20.000000, 16.000000)">
                    <rect id="矩形" x="0" y="0" width="16" height="16" rx="1"></rect>
                    <g id="编组" fill="#333333" fill-rule="nonzero">
                        <path d="M15.7461498,10.0318774 C15.7484865,10.0273436 15.7504759,10.0226247 15.7520994,10.0177648 C15.7540826,10.0136343 15.7557352,10.0115691 15.7557352,10.0074386 C15.7577185,10.0039965 15.7597017,10.001587 15.7597017,9.99780072 C15.7616849,9.99367022 15.7636681,9.98953972 15.7653208,9.98368818 C15.767304,9.98162293 15.767304,9.97783664 15.7692872,9.97577137 L15.7752368,9.95959358 L15.7828391,9.93549898 C15.7869279,9.92185132 15.7881548,9.91581124 15.7884581,9.90968334 C15.9289351,9.28666595 16,8.64781498 16,8.00104723 C16,7.3522142 15.9289352,6.71370745 15.7884581,6.09447635 C15.7864749,6.08690378 15.7848223,6.08105222 15.7848223,6.07485647 C15.7848223,6.07279122 15.7828391,6.07072597 15.7828391,6.06900493 L15.7768894,6.05076187 C15.7732536,6.03871458 15.7712704,6.03286304 15.7692872,6.02873254 C15.7692872,6.02666729 15.767304,6.022881 15.767304,6.02081573 C15.7653208,6.01668523 15.7636681,6.01048947 15.7616849,6.0070474 C15.7597017,6.0029169 15.7597017,6.00085165 15.7577185,5.99672115 C15.7557352,5.99293486 15.7540826,5.98880436 15.7520994,5.98673909 L15.7461498,5.9746918 C15.7441666,5.97262654 15.7441666,5.97090551 15.7425139,5.96884026 C15.7405307,5.96264451 15.7365643,5.958514 15.7345811,5.95266245 L15.7213597,5.93063311 C15.699894,5.89643631 15.6739753,5.8655068 15.6443452,5.83872945 C15.636743,5.83253369 15.6327766,5.82633794 15.6271575,5.82255163 C15.6155888,5.81256959 15.6116224,5.81050434 15.607656,5.80637384 C15.6040201,5.80258755 15.6000537,5.8005223 15.5944346,5.7963918 C15.5924514,5.79467076 15.5904682,5.79467076 15.588485,5.79260549 L15.5712972,5.7805582 C15.5425407,5.76438041 15.5154369,5.74854681 15.4866805,5.73856477 C15.4807308,5.73649952 15.4751118,5.73443427 15.4675095,5.73236902 C15.4655263,5.73236902 15.4655263,5.73030377 15.4635431,5.73030377 C15.457924,5.72858273 15.453627,5.72651748 15.448008,5.72651746 C15.4463553,5.72651746 15.4423889,5.72445221 15.4404057,5.72445221 C15.4367698,5.72238696 15.4328034,5.72238696 15.428837,5.72238696 C15.4252011,5.72032171 15.4192515,5.72032171 15.4156156,5.71860067 C15.4136324,5.71860067 15.4116492,5.71860067 15.4076828,5.71653542 C15.4020637,5.71447017 15.3961141,5.71447017 15.390495,5.71240492 L15.3865286,5.71240492 C15.3542464,5.70648949 15.3214107,5.70452564 15.2886905,5.70655338 C15.2655531,5.70655338 15.2404325,5.70827442 15.2096928,5.70827442 C14.7046995,5.70845711 14.2203391,5.49963099 13.8632549,5.12777408 C13.5061707,4.75591717 13.3056406,4.25151853 13.305816,3.72563347 C13.305816,3.33530103 13.4135702,2.9649327 13.6135433,2.64447458 L13.6327143,2.61246319 C13.6346975,2.60626743 13.6386639,2.60213693 13.6403166,2.59628539 C13.644283,2.58630336 13.6482494,2.57838655 13.6518853,2.56840451 C13.6538685,2.56220875 13.6578349,2.55635722 13.6598181,2.55016144 C13.6614957,2.54252774 13.6640481,2.53513161 13.6674204,2.52813211 C13.6694036,2.52021532 13.6730395,2.51023326 13.6750227,2.50231648 C13.6770059,2.49818597 13.6770059,2.49405547 13.6770059,2.49026916 C13.6804572,2.4784511 13.6829993,2.46636561 13.6846082,2.45412727 C13.6905578,2.42005063 13.692541,2.38803924 13.692541,2.3580931 C13.692541,2.338129 13.6905578,2.32401646 13.6905578,2.30990392 C13.6905578,2.30198713 13.6885746,2.29407032 13.6865914,2.28580932 C13.6846082,2.27789253 13.6846082,2.26997572 13.682625,2.26377999 C13.6805877,2.25210211 13.6773748,2.2406802 13.6730395,2.22970334 C13.6713868,2.22591706 13.6713868,2.22178656 13.6694036,2.21765603 C13.6654372,2.20767399 13.6614708,2.19562668 13.6578349,2.18564464 L13.6518853,2.17187632 L13.6403166,2.14778172 C13.6366807,2.13986493 13.6346975,2.13401337 13.6307311,2.12575236 C13.6290784,2.11955661 13.625112,2.11542611 13.6211456,2.10957457 C13.6155266,2.09959253 13.6115601,2.09167572 13.6039578,2.08169368 C13.6020637,2.07778839 13.5994854,2.07428617 13.5963556,2.07136743 C13.5884227,2.06172958 13.5808205,2.04968229 13.5732182,2.03970025 L13.5672686,2.0335045 C13.5576831,2.02352246 13.5500808,2.0135404 13.5404953,2.00355836 C12.6244309,1.08594377 11.5143651,0.409905749 10.2999383,0.0291784172 L10.276801,0.0229826643 C10.2520109,0.0167869113 10.2288735,0.0126564093 10.2057361,0.0109353534 C10.1235121,0.00449225196 10.0465246,0.0168718217 9.97535381,0.0470772457 C9.96742099,0.0508635324 9.96147138,0.0529287834 9.95783549,0.0549940546 C9.94825,0.0608455923 9.94428359,0.0608455923 9.94230039,0.0629108433 L9.92907901,0.0691065963 C9.92709581,0.0691065963 9.92709581,0.0711718473 9.9251126,0.0711718473 C9.87123553,0.101117987 9.82132488,0.143111417 9.78298293,0.195086907 C9.75786232,0.227098297 9.73670815,0.261174938 9.71918983,0.301447332 C9.40401963,0.992538864 8.73475539,1.43274022 8.00008165,1.43217225 C7.26210489,1.43268463 6.5904611,0.988580818 6.27700704,0.292842113 C6.25979591,0.253899523 6.2377963,0.217452211 6.21156128,0.184416436 C6.16772191,0.128464775 6.1125218,0.0833241532 6.04993007,0.0522403731 C6.04827741,0.0522403731 6.04827741,0.0501751222 6.0462942,0.0501751222 C6.04232779,0.0484540864 6.03637818,0.0463888354 6.03307283,0.0443235844 C6.02877588,0.0422583334 6.02712322,0.0422583334 6.02315681,0.0401930824 C6.0191904,0.0381278315 6.01753773,0.0381278315 6.01324078,0.0364067957 C6.00993543,0.0343415447 6.00398582,0.0322762937 6.00001943,0.0302110427 C5.99803622,0.0302110427 5.99638356,0.0281457917 5.99638354,0.0281457917 L5.97886523,0.0222942338 C5.92592049,0.00589667884 5.87079077,-0.00154110919 5.81558136,0.000264903403 C5.77436183,0.00172598757 5.73353671,0.00913988073 5.69427532,0.0222942338 C4.48972295,0.400346926 3.38798445,1.06941912 2.47883899,1.97498904 C2.46727028,1.98669214 2.4616512,1.99495314 2.45404892,2.00286993 C2.45008251,2.00700043 2.4461161,2.01319619 2.44248021,2.01663828 L2.42496191,2.04073288 C2.42132604,2.04692863 2.41735963,2.05105913 2.41339322,2.05691067 C2.40827773,2.0644976 2.40385152,2.07256393 2.40017185,2.08100527 C2.39620544,2.08685681 2.39223903,2.09477362 2.38860316,2.10096935 C2.38463675,2.10888614 2.38100088,2.1147377 2.37868713,2.1229987 C2.37538179,2.13091549 2.37108485,2.1391765 2.36943217,2.14709331 C2.36744897,2.15294484 2.36348256,2.16086165 2.36149935,2.16705738 C2.35781755,2.17536998 2.35525915,2.18417358 2.35389707,2.19321724 C2.35191387,2.20113403 2.34993066,2.20698558 2.34827798,2.21524659 L2.34232836,2.24106223 C2.34034516,2.24932323 2.34034516,2.25724002 2.33869249,2.26515681 C2.33670929,2.2730736 2.33670929,2.2813346 2.33472608,2.28718616 C2.33274288,2.29751241 2.33274288,2.30715026 2.33274288,2.31541126 C2.33274288,2.3212628 2.33274288,2.32917961 2.33075967,2.33537534 L2.33075967,2.38528558 C2.33075967,2.39561183 2.33274288,2.40524968 2.33472608,2.41729697 C2.33472608,2.42349272 2.33670929,2.42934426 2.33670929,2.43554001 L2.34232836,2.46548615 C2.34431157,2.47133769 2.34431157,2.47753344 2.34629477,2.48545025 C2.34827798,2.49336706 2.35191385,2.50162804 2.35389707,2.5116101 C2.35588028,2.51952689 2.35786348,2.5274437 2.36149935,2.53363943 C2.36348256,2.54155622 2.36744897,2.54740778 2.37141538,2.55566879 L2.38265354,2.58148442 C2.38661995,2.58768018 2.38860316,2.59353171 2.39256957,2.59972747 C2.39620544,2.60764426 2.40215505,2.61762632 2.40777413,2.6255431 C2.61733279,2.95426223 2.72905333,3.33254735 2.72905333,3.72907556 C2.72922877,4.25496062 2.52869866,4.75935926 2.17161447,5.13121617 C1.81453028,5.50307308 1.33016983,5.7118992 0.825176553,5.71171651 C0.786504056,5.71171651 0.750145304,5.71171651 0.717422422,5.70965126 L0.665528552,5.70965126 C0.659578937,5.70965126 0.652307179,5.70965126 0.646357583,5.71171651 L0.640407968,5.71171651 C0.634788894,5.71171651 0.628839279,5.71378176 0.623220185,5.71378176 C0.62123698,5.71378176 0.61727057,5.71378176 0.615617906,5.71584701 C0.611651496,5.71584701 0.605701881,5.71791226 0.602065992,5.71791226 C0.598099582,5.71791226 0.594463713,5.7196333 0.590497303,5.7196333 C0.586530893,5.7196333 0.582895024,5.72169855 0.578928614,5.72169855 C0.574962204,5.7237638 0.569012589,5.7237638 0.565707241,5.72582905 C0.552155347,5.72961534 0.547858396,5.73168059 0.542239322,5.73168059 L0.519432465,5.73994159 C0.507863775,5.7437279 0.50191416,5.74579315 0.496295067,5.74992365 C0.486709582,5.75370994 0.480759967,5.75784044 0.475140874,5.75990569 C0.473157669,5.75990569 0.471174464,5.76162673 0.469191259,5.76162673 C0.463572184,5.76369198 0.457622569,5.76782248 0.4539867,5.76988773 C0.452003495,5.77195298 0.45002029,5.77195298 0.448037085,5.77367404 C0.442418011,5.77573929 0.438451601,5.77986979 0.434815712,5.78193504 C0.425230228,5.78778658 0.421263818,5.79191708 0.417297408,5.79398233 C0.415314203,5.79570337 0.411678334,5.79776862 0.409695109,5.79983387 C0.405728699,5.80189912 0.40209283,5.80568541 0.399779084,5.80775068 C0.396473736,5.80981593 0.39416001,5.81394643 0.390524141,5.81601168 C0.378955432,5.82599372 0.374989022,5.82771476 0.371353153,5.83218948 L0.365403538,5.83804102 L0.353834849,5.84974411 L0.348215755,5.85593986 L0.336647066,5.86798715 L0.332680656,5.87177346 C0.329044786,5.87590396 0.325078376,5.88003447 0.321111966,5.885886 C0.319459302,5.88795125 0.319459302,5.89001651 0.317476078,5.89208176 C0.313561776,5.89615946 0.310223132,5.90079516 0.307560053,5.9058501 C0.299957774,5.91583214 0.298305109,5.91996264 0.294008159,5.92581418 C0.292355494,5.92787943 0.290702811,5.92994468 0.288389084,5.93407519 C0.28673642,5.93786147 0.28277001,5.94199197 0.280786786,5.9461225 L0.275167711,5.95610454 C0.273184506,5.95989082 0.271201301,5.96195607 0.269218096,5.96608658 L0.263599022,5.97813389 C0.261615817,5.98019914 0.261615817,5.98398543 0.259632612,5.98605068 C0.257649407,5.99224643 0.254013538,5.99637693 0.252030313,6.00222847 C0.252030313,6.0039495 0.250047108,6.00601476 0.250047108,6.00808003 C0.248063903,6.01427578 0.244428034,6.02012732 0.242444829,6.02597886 C0.242444829,6.02804411 0.242444829,6.02804411 0.240461624,6.03010936 C0.238478419,6.03802615 0.23484255,6.0438777 0.232859345,6.05213871 C0.23087614,6.06212075 0.22690973,6.07003756 0.224926525,6.07829856 L0.219307431,6.10239314 C0.219307431,6.10617943 0.217324226,6.11030993 0.217324226,6.11409624 C0.0712226223,6.73136974 -0.0017076384,7.36495845 3.03423378e-05,8.00070301 C3.03423378e-05,8.64368448 0.0712281196,9.27840497 0.207738742,9.89522658 C0.207738742,9.89935708 0.209721947,9.90314337 0.209721947,9.90727389 C0.211705152,9.91519068 0.213688357,9.92310749 0.215341021,9.93343372 C0.217104039,9.94175117 0.219765245,9.94983413 0.223273841,9.95752833 C0.224926506,9.96716615 0.228892916,9.97301771 0.23087614,9.98127871 C0.23087614,9.98334396 0.23087614,9.98334396 0.232859345,9.98540921 C0.23484255,9.99126075 0.238478419,9.9974565 0.240461624,10.0033081 C0.240461624,10.0053733 0.242444829,10.0074386 0.242444829,10.0095038 C0.244428034,10.0153554 0.246080698,10.0194859 0.250047108,10.0253374 C0.252030313,10.0274026 0.252030313,10.0315331 0.254013518,10.0332542 L0.259632612,10.0453015 C0.261615817,10.049432 0.263599022,10.0535625 0.265582227,10.0556277 C0.267234891,10.059414 0.269218096,10.0614793 0.271201301,10.0656098 C0.273184506,10.0693961 0.277150916,10.0735266 0.278803581,10.0773129 C0.280786786,10.0793781 0.282769991,10.0814434 0.282769991,10.0855739 C0.286736401,10.0893602 0.288389065,10.0955559 0.292686016,10.0993422 C0.299957774,10.1096685 0.303924184,10.11552 0.307890593,10.1193063 C0.309543258,10.1213716 0.309543258,10.1234368 0.311526463,10.1234368 C0.315492873,10.1275673 0.319459283,10.1337631 0.323095171,10.1375494 L0.327061581,10.1416799 L0.338630271,10.1537272 C0.340613476,10.1554482 0.34226614,10.1575135 0.344249345,10.1575135 L0.355818054,10.1695608 L0.361767669,10.1757565 C0.365403538,10.1795428 0.369369948,10.1816081 0.373005817,10.1857386 C0.374989022,10.1874596 0.378955432,10.1895248 0.380938637,10.1915901 C0.384574506,10.1936553 0.386557711,10.1977859 0.390524141,10.1995069 C0.39416001,10.2015722 0.396143215,10.2057027 0.400109625,10.2077679 C0.40209283,10.2094889 0.405728699,10.2115542 0.407711904,10.2136194 C0.411678314,10.2156847 0.415314184,10.2198152 0.419280613,10.2215362 C0.421263818,10.2236015 0.423247023,10.2256667 0.426882892,10.2256667 L0.440434787,10.2335835 C0.442417992,10.2356488 0.444401197,10.2356488 0.446384401,10.237714 C0.452003476,10.2397793 0.455969886,10.2435656 0.461588979,10.2456308 C0.463572184,10.2456308 0.465555389,10.2476961 0.467538594,10.2476961 C0.473157669,10.2497613 0.478776762,10.2535476 0.482743172,10.2556129 C0.484726377,10.2556129 0.486709582,10.2576781 0.488692787,10.2576781 L0.505880551,10.2638739 C0.507863756,10.2638739 0.509846961,10.2655949 0.511499645,10.2655949 L0.527034744,10.2717907 C0.529017949,10.2717907 0.531001154,10.2738559 0.534637023,10.2738559 C0.540586638,10.275577 0.544553048,10.2776422 0.550172142,10.2776422 C0.553808011,10.2776422 0.555791216,10.2797075 0.559757626,10.2797075 C0.563393495,10.2817727 0.567359905,10.2817727 0.572978999,10.283838 C0.576945409,10.283838 0.580911819,10.2859032 0.584547688,10.2859032 C0.588514098,10.2859032 0.592480508,10.2876243 0.596116377,10.2876243 C0.600082787,10.2876243 0.606032402,10.2896895 0.609668291,10.2896895 C0.611651496,10.2896895 0.615617906,10.2896895 0.61727057,10.2917548 C0.623220185,10.2917548 0.62883926,10.29382 0.634788875,10.29382 C0.646357583,10.29382 0.653629341,10.2958853 0.659578937,10.2958853 L0.711472807,10.2958853 C0.74452623,10.29382 0.780884981,10.29382 0.819226938,10.29382 C1.32422022,10.2936373 1.80858066,10.5024634 2.16566486,10.8743204 C2.52274905,11.2461773 2.72327915,11.7505759 2.72310372,12.276461 C2.72380054,12.666859 2.61338049,13.0487156 2.40579092,13.3737977 C2.40380772,13.3758629 2.40380772,13.3779282 2.40215505,13.3796492 C2.39620544,13.3879102 2.39223903,13.3978923 2.38661995,13.4058091 C2.38265354,13.4120048 2.38100088,13.4178564 2.37670393,13.4237079 C2.37339858,13.4319689 2.36943217,13.4419509 2.36546576,13.4498677 C2.36149935,13.4560635 2.35984669,13.4636361 2.35554974,13.4698318 C2.35389707,13.4780928 2.34993066,13.4860096 2.34827798,13.4918612 C2.34629477,13.5001222 2.34232836,13.508039 2.34034516,13.518021 C2.33822352,13.5244607 2.33699912,13.5311837 2.33670929,13.5379851 L2.33075967,13.5679313 C2.32877647,13.574127 2.32877647,13.5799786 2.32877647,13.5861743 C2.3271238,13.5961564 2.3271238,13.6061384 2.3251406,13.6181857 L2.3251406,13.6680959 C2.3251406,13.6742917 2.3251406,13.6822085 2.3271238,13.68806 C2.3271238,13.6983863 2.3271238,13.7083683 2.32877647,13.7162851 C2.32899069,13.7237983 2.33032891,13.7312308 2.33274288,13.7383145 C2.33472608,13.7462313 2.33472608,13.7541481 2.33670929,13.7644743 L2.34232836,13.7885689 L2.34827798,13.810254 C2.34993064,13.818515 2.35389705,13.8264318 2.35588028,13.8343486 C2.35786348,13.8422654 2.36149935,13.848117 2.36348256,13.856378 C2.36744897,13.8642948 2.36943217,13.8701463 2.37339858,13.8784073 C2.37670393,13.8863241 2.38100086,13.8945851 2.38463675,13.9004367 L2.39620544,13.9186797 C2.40017185,13.9265965 2.40612146,13.9345133 2.41174054,13.9427743 C2.41537641,13.9486259 2.41934282,13.9524122 2.42330925,13.9586079 C2.42892832,13.9665247 2.43454741,13.9765067 2.44248021,13.9847678 L2.45404892,13.9964708 L2.4771863,14.0205654 C3.39055523,14.9294532 4.49209601,15.5984053 5.69625852,15.9773907 C5.79488723,16.0089231 5.9006031,16.0068733 5.99803622,15.9715392 C6.00001943,15.9715392 6.00001943,15.9715392 6.00200263,15.9691297 L6.01753773,15.9632782 C6.0191904,15.9612129 6.02315681,15.9612129 6.02514001,15.9591477 C6.02877588,15.9570824 6.03075909,15.9553614 6.03472551,15.9553614 L6.0462942,15.9491657 C6.04827741,15.9491657 6.04993007,15.9471004 6.05191328,15.9471004 C6.05786289,15.9450352 6.06348197,15.9412489 6.0674484,15.9391836 C6.11735906,15.9130237 6.15966743,15.8772261 6.19833993,15.8348884 C6.23073227,15.7970255 6.25783607,15.755032 6.27899025,15.7068429 C6.5930802,15.0116875 7.26432457,14.5678478 8.00206486,14.5675127 C8.74004161,14.5670004 9.41168538,15.0111042 9.72513944,15.7068429 C9.77179958,15.812505 9.85281118,15.8975995 9.95386908,15.9471004 C9.95386908,15.9471004 9.95585228,15.9471004 9.95585228,15.9491657 C9.95981869,15.9512309 9.96576831,15.9532962 9.96907365,15.9553614 C9.9713874,15.9570824 9.97502327,15.9570824 9.97700647,15.9591477 C9.98097288,15.9612129 9.98262555,15.9612129 9.9869225,15.9632782 C9.99117962,15.9655775 9.99559969,15.9675338 10.0001439,15.9691297 C10.0692255,15.9952896 10.1406209,16.0052716 10.2116857,15.9973548 C10.2348231,15.9952896 10.2579605,15.9911591 10.2810979,15.9853075 L10.3042353,15.9773907 C11.5208072,15.5966095 12.6310307,14.9196495 13.5444617,14.0026666 L13.571235,13.9744415 C13.5752014,13.9706552 13.576854,13.9665247 13.581151,13.9644595 C13.5884227,13.9565427 13.5943724,13.9465606 13.5999914,13.9386438 C13.6039312,13.9344607 13.607271,13.9297075 13.6099075,13.9245313 C13.6135433,13.9166145 13.6191624,13.9107629 13.6231288,13.9025019 C13.6270952,13.8966504 13.6307311,13.8887336 13.6346975,13.8825378 C13.6366807,13.8784073 13.6386639,13.8722116 13.6422998,13.8687695 C13.6462662,13.8584432 13.6522158,13.848117 13.6558517,13.8384791 C13.6558517,13.8364139 13.6578349,13.8343486 13.6578349,13.8322834 C13.6630876,13.8192941 13.6675045,13.8059553 13.6710563,13.7923552 C13.6750227,13.7765216 13.6789891,13.7603438 13.682625,13.7462313 C13.6846082,13.7403797 13.6846082,13.7362492 13.6846082,13.7303977 L13.6905578,13.6983863 C13.692541,13.6842737 13.692541,13.6722264 13.692541,13.6581139 L13.692541,13.6501971 C13.692541,13.6181857 13.6905578,13.5882396 13.6846082,13.555884 C13.6829993,13.5398593 13.6804572,13.5277738 13.6770059,13.5159558 C13.6750227,13.5118253 13.6750227,13.5059737 13.6730395,13.5021874 C13.6713868,13.4939264 13.6674204,13.4860096 13.6654372,13.4780928 C13.663454,13.4698318 13.6614708,13.4619151 13.6578349,13.4539982 C13.6558517,13.4478025 13.6518853,13.441951 13.6502326,13.4357552 C13.6462662,13.4257732 13.6422998,13.4157911 13.6366807,13.4058091 C13.6346975,13.4016786 13.6307311,13.395827 13.6290784,13.3920407 L13.6115601,13.3617504 C13.4079998,13.0382558 13.3011438,12.662428 13.3021802,12.2785262 C13.3019767,11.7380537 13.513735,11.2209372 13.8884114,10.8469418 C14.2630878,10.4729464 14.7681799,10.2745156 15.2867073,10.2976063 C15.3114973,10.2996716 15.3366179,10.2976063 15.3594248,10.2958853 C15.3693408,10.2958853 15.3749599,10.29382 15.3828927,10.29382 C15.3919376,10.2936642 15.397245,10.292253 15.4020637,10.2896895 C15.4136324,10.2876243 15.4172683,10.2859032 15.4212347,10.2859032 C15.4252011,10.283838 15.428837,10.283838 15.4328034,10.2817727 C15.4347866,10.2817727 15.4367698,10.2797075 15.4404057,10.2797075 L15.4559408,10.2738559 C15.4559408,10.2738559 15.457924,10.2738559 15.457924,10.2717907 C15.4942827,10.2597434 15.5289888,10.2418446 15.5617117,10.2215362 C15.5673308,10.21775 15.5732804,10.2136194 15.5808827,10.2094889 C15.5828659,10.2077679 15.5848491,10.2077679 15.5865018,10.2057027 C15.5904682,10.2015722 15.5964178,10.1995069 15.6000537,10.1953764 C15.6040201,10.1936554 15.6076559,10.1895249 15.6116224,10.1857386 C15.6137699,10.183205 15.6163469,10.1811048 15.6192246,10.1795428 C15.6251743,10.1757565 15.6291407,10.1695608 15.6347597,10.1657745 C15.6347597,10.1657745 15.6367429,10.1657745 15.6367429,10.1637092 C15.6711185,10.1316978 15.7002055,10.0934907 15.7249956,10.0514972 L15.7269788,10.049432 C15.7368948,10.0473667 15.7385475,10.0415152 15.7425139,10.0373847 C15.7441666,10.0356636 15.7441666,10.0335984 15.7461498,10.0318774 Z M12.5925233,13.5324778 C11.9443723,14.1174117 11.1986887,14.5735781 10.3924879,14.878333 C9.85676514,14.0491068 8.9598037,13.5520034 8.00008165,13.5524419 C7.04084594,13.5514523 6.14429445,14.0486116 5.60965857,14.8779888 C4.81324932,14.5773075 4.07571507,14.1289112 3.43276058,13.5545071 C3.61159916,13.1557834 3.70412659,12.7210093 3.70379858,12.2809357 C3.70401197,10.7310144 2.57059996,9.43599428 1.08861229,9.29286172 C1.0153363,8.86649537 0.978612565,8.43418811 0.978872162,8.00104723 C0.978872162,7.56459086 1.01523369,7.13192078 1.08861229,6.70923274 C2.57047378,6.56611235 3.70384123,5.27129229 3.70379858,3.72150297 C3.70412659,3.28142931 3.61159916,2.84665529 3.43276058,2.44793152 C4.07548912,1.8731125 4.81307873,1.42456589 5.60965857,1.12410564 C6.14513244,1.9535753 7.04228815,2.45065726 8.00206486,2.44965257 C8.96130056,2.45064213 9.85785205,1.95348282 10.3924879,1.12410564 C11.198897,1.42839908 11.9446579,1.88461273 12.5925233,2.46996087 C12.4195849,2.86259041 12.3302803,3.28954092 12.3307402,3.72150297 C12.3307402,5.27353909 13.4614976,6.54917579 14.9135342,6.70544643 C14.9868812,7.1330775 15.0236046,7.56664843 15.023276,8.00104723 C15.023276,8.43956885 14.9869128,8.87223893 14.9135342,9.29664801 C13.4614976,9.45291867 12.3307403,10.7285554 12.3307402,12.2809357 C12.3307402,12.7194573 12.4213066,13.1438664 12.5925233,13.5324778 Z" id="形状"></path>
                    </g>
                    <circle id="椭圆形" stroke="#06958D" cx="8" cy="8" r="2.5"></circle>
                </g>
            </g>
        </g>
    </g>
</svg>